# Blender 4.0.2
# www.blender.org
mtllib longFluidz+3.mtl
o Box_Cube.001
v 0.989970 12.207169 3.860864
v 0.989970 12.207143 -4.698499
v -1.010030 12.207169 3.860864
v -1.010030 12.207143 -4.698499
v 0.989970 0.086047 3.860865
v 0.989970 0.086032 -4.698498
v -1.010030 0.086047 3.860865
v -1.010030 0.086032 -4.698498
vn -0.0000 1.0000 -0.0000
vn -1.0000 -0.0000 -0.0000
vn -0.0000 -1.0000 -0.0000
vn 1.0000 -0.0000 -0.0000
vn -0.0000 -0.0000 1.0000
vn -0.0000 -0.0000 -1.0000
s 0
usemtl None.001
f 2//1 3//1 1//1
f 4//2 7//2 3//2
f 8//3 5//3 7//3
f 6//4 1//4 5//4
f 7//5 1//5 3//5
f 4//6 6//6 8//6
f 2//1 4//1 3//1
f 4//2 8//2 7//2
f 8//3 6//3 5//3
f 6//4 2//4 1//4
f 7//5 5//5 1//5
f 4//6 2//6 6//6
